HIERARCHY
ROOT pelvis
{
  OFFSET 0 100 0
  CHANNELS 6 Xposition Yposition Zposition Zrotation Xrotation Yrotation
  JOINT pelvis_right_femur
  {
    OFFSET -10.78128 -3.44521 -0.5502486
    CHANNELS 3 Zrotation Xrotation Yrotation
    JOINT right_femur_tibia
    {
      OFFSET -0.8047443 -44.0398 -0.1307829
      CHANNELS 3 Zrotation Xrotation Yrotation
      JOINT right_tibia_foot
      {
        OFFSET 3.006224 -47.83518 -5
        CHANNELS 3 Zrotation Xrotation Yrotation
        End Site
        {
          OFFSET 0 -5 15
        }
      }
    }
  }
  JOINT pelvis_left_femur
  {
    OFFSET 10.78128 -3.44521 -0.5502486
    CHANNELS 3 Zrotation Xrotation Yrotation
    JOINT left_femur_tibia
    {
      OFFSET 0.8047443 -44.0398 -0.1307829
      CHANNELS 3 Zrotation Xrotation Yrotation
      JOINT left_tibia_foot
      {
        OFFSET -4.370144 -48.10324 -4.275266
        CHANNELS 3 Zrotation Xrotation Yrotation
        End Site
        {
          OFFSET 0 -5 15
        }
      }
    }
  }
  JOINT pelvis_spine1
  {
    OFFSET 0 6.468898 -3.129235
    CHANNELS 3 Zrotation Xrotation Yrotation
    JOINT spine1
    {
      OFFSET 0 23.15396 4.99043
      CHANNELS 3 Zrotation Xrotation Yrotation
      JOINT spine2
      {
        OFFSET 0 20.79997 -5.064912
        CHANNELS 3 Zrotation Xrotation Yrotation
        JOINT neck
        {
          OFFSET 0 14.38658 9.616178
          CHANNELS 3 Zrotation Xrotation Yrotation
          End Site
          {
            OFFSET 0 20 0
          }
        }
      }
      JOINT right_manubrium
      {
        OFFSET -5.722621 16.35077 3.967754
        CHANNELS 3 Zrotation Xrotation Yrotation
        JOINT right_clavicle
        {
          OFFSET -13.16364 1.694482 -4.693211
          CHANNELS 3 Zrotation Xrotation Yrotation
          JOINT right_humerus
          {
            OFFSET -28.5034 -0.3100689 -2.792744
            CHANNELS 3 Zrotation Xrotation Yrotation
            JOINT right_radius
            {
              OFFSET -25.15693 0.02248979 -1.271978
              CHANNELS 3 Zrotation Xrotation Yrotation
              End Site
              {
                OFFSET -15 0 0
              }
            }
          }
        }
      }
      JOINT left_manubrium
      {
        OFFSET 5.722621 16.35077 3.967754
        CHANNELS 3 Zrotation Xrotation Yrotation
        JOINT left_clavicle
        {
          OFFSET 13.16364 1.694482 -4.693211
          CHANNELS 3 Zrotation Xrotation Yrotation
          JOINT left_humerus
          {
            OFFSET 29.39168 -1.063119 -2.237045
            CHANNELS 3 Zrotation Xrotation Yrotation
            JOINT left_radius
            {
              OFFSET 24.59957 -0.9528479 0.9047498
              CHANNELS 3 Zrotation Xrotation Yrotation
              End Site
              {
                OFFSET 15 -0 -0
              }
            }
          }
        }
      }
    }
  }
}
MOTION
Frames: 19
Frame Time: 0.0416666666667
-1087.951 78.79537 -155.1943 14.59026 5.453527 106.5669 3.754289 9.206286 -0.4894907 -0 28.88855 -0 -10.86171 -5.420269 -1.113263 1.61079 -8.530917 -2.124612 -0 28.38417 -0 11.9256 2.51394 11.02026 -1.154614 -3.041185 9.683004 0.9348027 13.63592 -5.88105 -2.043151 20.78852 5.194918 4.661468 -13.26136 0.9214885 3.402581 -28.54805 13.59962 82.81275 23.08052 -10.22824 -0 0 27.70359 -17.88468 8.520871 9.105583 3.212119 -25.62234 -9.336924 -96.7318 6.845281 39.50492 0 0 -1.381471 9.960044 11.66396 2.420673
-1082.039 78.8449 -158.9357 14.64191 5.310558 106.0163 3.754289 9.206286 -0.4894907 -0 28.88855 -0 -10.86171 -5.420269 -1.113263 1.61079 -8.530917 -2.124612 -0 28.38417 -0 11.9256 2.51394 11.02026 -1.154614 -3.041185 9.683004 0.9348027 13.63592 -5.88105 -2.043151 20.78852 5.194918 4.661468 -13.26136 0.9214885 3.402581 -28.54805 13.59962 82.81275 23.08052 -10.22824 -0 0 27.70359 -17.88468 8.520871 9.105583 3.212119 -25.62234 -9.336924 -96.7318 6.845281 39.50492 0 0 -1.381471 9.960044 11.66396 2.420673
-1076.09 78.89443 -162.6185 14.69216 5.167101 105.4659 3.754289 9.206286 -0.4894907 -0 28.88855 -0 -10.86171 -5.420269 -1.113263 1.61079 -8.530917 -2.124612 -0 28.38417 -0 11.9256 2.51394 11.02026 -1.154614 -3.041185 9.683004 0.9348027 13.63592 -5.88105 -2.043151 20.78852 5.194918 4.661468 -13.26136 0.9214885 3.402581 -28.54805 13.59962 82.81275 23.08052 -10.22824 -0 0 27.70359 -17.88468 8.520871 9.105583 3.212119 -25.62234 -9.336924 -96.7318 6.845281 39.50492 0 0 -1.381471 9.960044 11.66396 2.420673
-1070.106 78.94396 -166.2422 14.74102 5.02317 104.9157 3.754289 9.206286 -0.4894907 -0 28.88855 -0 -10.86171 -5.420269 -1.113263 1.61079 -8.530917 -2.124612 -0 28.38417 -0 11.9256 2.51394 11.02026 -1.154614 -3.041185 9.683004 0.9348027 13.63592 -5.88105 -2.043151 20.78852 5.194918 4.661468 -13.26136 0.9214885 3.402581 -28.54805 13.59962 82.81275 23.08052 -10.22824 -0 0 27.70359 -17.88468 8.520871 9.105583 3.212119 -25.62234 -9.336924 -96.7318 6.845281 39.50492 0 0 -1.381471 9.960044 11.66396 2.420673
-1064.085 78.99349 -169.8066 14.78848 4.878779 104.3658 3.754289 9.206286 -0.4894907 -0 28.88855 -0 -10.86171 -5.420269 -1.113263 1.61079 -8.530917 -2.124612 -0 28.38417 -0 11.9256 2.51394 11.02026 -1.154614 -3.041185 9.683004 0.9348027 13.63592 -5.88105 -2.043151 20.78852 5.194918 4.661468 -13.26136 0.9214885 3.402581 -28.54805 13.59962 82.81275 23.08052 -10.22824 -0 0 27.70359 -17.88468 8.520871 9.105583 3.212119 -25.62234 -9.336924 -96.7318 6.845281 39.50492 0 0 -1.381471 9.960044 11.66396 2.420673
-1058.03 79.04302 -173.3113 14.83454 4.733941 103.8161 3.754289 9.206286 -0.4894907 -0 28.88855 -0 -10.86171 -5.420269 -1.113263 1.61079 -8.530917 -2.124612 -0 28.38417 -0 11.9256 2.51394 11.02026 -1.154614 -3.041185 9.683004 0.9348027 13.63592 -5.88105 -2.043151 20.78852 5.194918 4.661468 -13.26136 0.9214885 3.402581 -28.54805 13.59962 82.81275 23.08052 -10.22824 -0 0 27.70359 -17.88468 8.520871 9.105583 3.212119 -25.62234 -9.336924 -96.7318 6.845281 39.50492 0 0 -1.381471 9.960044 11.66396 2.420673
-1051.941 79.09255 -176.7559 14.87919 4.588669 103.2667 3.754289 9.206286 -0.4894907 -0 28.88855 -0 -10.86171 -5.420269 -1.113263 1.61079 -8.530917 -2.124612 -0 28.38417 -0 11.9256 2.51394 11.02026 -1.154614 -3.041185 9.683004 0.9348027 13.63592 -5.88105 -2.043151 20.78852 5.194918 4.661468 -13.26136 0.9214885 3.402581 -28.54805 13.59962 82.81275 23.08052 -10.22824 -0 0 27.70359 -17.88468 8.520871 9.105583 3.212119 -25.62234 -9.336924 -96.7318 6.845281 39.50492 0 0 -1.381471 9.960044 11.66396 2.420673
-1045.817 79.14208 -180.1402 14.92243 4.442978 102.7175 3.754289 9.206286 -0.4894907 -0 28.88855 -0 -10.86171 -5.420269 -1.113263 1.61079 -8.530917 -2.124612 -0 28.38417 -0 11.9256 2.51394 11.02026 -1.154614 -3.041185 9.683004 0.9348027 13.63592 -5.88105 -2.043151 20.78852 5.194918 4.661468 -13.26136 0.9214885 3.402581 -28.54805 13.59962 82.81275 23.08052 -10.22824 -0 0 27.70359 -17.88468 8.520871 9.105583 3.212119 -25.62234 -9.336924 -96.7318 6.845281 39.50492 0 0 -1.381471 9.960044 11.66396 2.420673
-1039.661 79.19161 -183.4637 14.96427 4.29688 102.1685 3.754289 9.206286 -0.4894907 -0 28.88855 -0 -10.86171 -5.420269 -1.113263 1.61079 -8.530917 -2.124612 -0 28.38417 -0 11.9256 2.51394 11.02026 -1.154614 -3.041185 9.683004 0.9348027 13.63592 -5.88105 -2.043151 20.78852 5.194918 4.661468 -13.26136 0.9214885 3.402581 -28.54805 13.59962 82.81275 23.08052 -10.22824 -0 0 27.70359 -17.88468 8.520871 9.105583 3.212119 -25.62234 -9.336924 -96.7318 6.845281 39.50492 0 0 -1.381471 9.960044 11.66396 2.420673
-1033.472 79.24114 -186.7262 15.00468 4.150388 101.6197 3.754289 9.206286 -0.4894907 -0 28.88855 -0 -10.86171 -5.420269 -1.113263 1.61079 -8.530917 -2.124612 -0 28.38417 -0 11.9256 2.51394 11.02026 -1.154614 -3.041185 9.683004 0.9348027 13.63592 -5.88105 -2.043151 20.78852 5.194918 4.661468 -13.26136 0.9214885 3.402581 -28.54805 13.59962 82.81275 23.08052 -10.22824 -0 0 27.70359 -17.88468 8.520871 9.105583 3.212119 -25.62234 -9.336924 -96.7318 6.845281 39.50492 0 0 -1.381471 9.960044 11.66396 2.420673
-1027.251 79.29067 -189.9274 15.04369 4.003518 101.0711 3.754289 9.206286 -0.4894907 -0 28.88855 -0 -10.86171 -5.420269 -1.113263 1.61079 -8.530917 -2.124612 -0 28.38417 -0 11.9256 2.51394 11.02026 -1.154614 -3.041185 9.683004 0.9348027 13.63592 -5.88105 -2.043151 20.78852 5.194918 4.661468 -13.26136 0.9214885 3.402581 -28.54805 13.59962 82.81275 23.08052 -10.22824 -0 0 27.70359 -17.88468 8.520871 9.105583 3.212119 -25.62234 -9.336924 -96.7318 6.845281 39.50492 0 0 -1.381471 9.960044 11.66396 2.420673
-1020.998 79.34021 -193.0669 15.08127 3.856282 100.5227 3.754289 9.206286 -0.4894907 -0 28.88855 -0 -10.86171 -5.420269 -1.113263 1.61079 -8.530917 -2.124612 -0 28.38417 -0 11.9256 2.51394 11.02026 -1.154614 -3.041185 9.683004 0.9348027 13.63592 -5.88105 -2.043151 20.78852 5.194918 4.661468 -13.26136 0.9214885 3.402581 -28.54805 13.59962 82.81275 23.08052 -10.22824 -0 0 27.70359 -17.88468 8.520871 9.105583 3.212119 -25.62234 -9.336924 -96.7318 6.845281 39.50492 0 0 -1.381471 9.960044 11.66396 2.420673
-1014.715 79.38974 -196.1444 15.11744 3.708694 99.97451 3.754289 9.206286 -0.4894907 -0 28.88855 -0 -10.86171 -5.420269 -1.113263 1.61079 -8.530917 -2.124612 -0 28.38417 -0 11.9256 2.51394 11.02026 -1.154614 -3.041185 9.683004 0.9348027 13.63592 -5.88105 -2.043151 20.78852 5.194918 4.661468 -13.26136 0.9214885 3.402581 -28.54805 13.59962 82.81275 23.08052 -10.22824 -0 0 27.70359 -17.88468 8.520871 9.105583 3.212119 -25.62234 -9.336924 -96.7318 6.845281 39.50492 0 0 -1.381471 9.960044 11.66396 2.420673
-1008.402 79.43927 -199.1596 15.15218 3.560767 99.42649 3.754289 9.206286 -0.4894907 -0 28.88855 -0 -10.86171 -5.420269 -1.113263 1.61079 -8.530917 -2.124612 -0 28.38417 -0 11.9256 2.51394 11.02026 -1.154614 -3.041185 9.683004 0.9348027 13.63592 -5.88105 -2.043151 20.78852 5.194918 4.661468 -13.26136 0.9214885 3.402581 -28.54805 13.59962 82.81275 23.08052 -10.22824 -0 0 27.70359 -17.88468 8.520871 9.105583 3.212119 -25.62234 -9.336924 -96.7318 6.845281 39.50492 0 0 -1.381471 9.960044 11.66396 2.420673
-1002.059 79.4888 -202.1122 15.1855 3.412516 98.87865 3.754289 9.206286 -0.4894907 -0 28.88855 -0 -10.86171 -5.420269 -1.113263 1.61079 -8.530917 -2.124612 -0 28.38417 -0 11.9256 2.51394 11.02026 -1.154614 -3.041185 9.683004 0.9348027 13.63592 -5.88105 -2.043151 20.78852 5.194918 4.661468 -13.26136 0.9214885 3.402581 -28.54805 13.59962 82.81275 23.08052 -10.22824 -0 0 27.70359 -17.88468 8.520871 9.105583 3.212119 -25.62234 -9.336924 -96.7318 6.845281 39.50492 0 0 -1.381471 9.960044 11.66396 2.420673
-995.6876 79.53833 -205.002 15.21739 3.263954 98.33098 3.754289 9.206286 -0.4894907 -0 28.88855 -0 -10.86171 -5.420269 -1.113263 1.61079 -8.530917 -2.124612 -0 28.38417 -0 11.9256 2.51394 11.02026 -1.154614 -3.041185 9.683004 0.9348027 13.63592 -5.88105 -2.043151 20.78852 5.194918 4.661468 -13.26136 0.9214885 3.402581 -28.54805 13.59962 82.81275 23.08052 -10.22824 -0 0 27.70359 -17.88468 8.520871 9.105583 3.212119 -25.62234 -9.336924 -96.7318 6.845281 39.50492 0 0 -1.381471 9.960044 11.66396 2.420673
-989.2877 79.58786 -207.8286 15.24785 3.115094 97.78347 3.754289 9.206286 -0.4894907 -0 28.88855 -0 -10.86171 -5.420269 -1.113263 1.61079 -8.530917 -2.124612 -0 28.38417 -0 11.9256 2.51394 11.02026 -1.154614 -3.041185 9.683004 0.9348027 13.63592 -5.88105 -2.043151 20.78852 5.194918 4.661468 -13.26136 0.9214885 3.402581 -28.54805 13.59962 82.81275 23.08052 -10.22824 -0 0 27.70359 -17.88468 8.520871 9.105583 3.212119 -25.62234 -9.336924 -96.7318 6.845281 39.50492 0 0 -1.381471 9.960044 11.66396 2.420673
-982.8602 79.63739 -210.5918 15.27688 2.96595 97.23611 3.754289 9.206286 -0.4894907 -0 28.88855 -0 -10.86171 -5.420269 -1.113263 1.61079 -8.530917 -2.124612 -0 28.38417 -0 11.9256 2.51394 11.02026 -1.154614 -3.041185 9.683004 0.9348027 13.63592 -5.88105 -2.043151 20.78852 5.194918 4.661468 -13.26136 0.9214885 3.402581 -28.54805 13.59962 82.81275 23.08052 -10.22824 -0 0 27.70359 -17.88468 8.520871 9.105583 3.212119 -25.62234 -9.336924 -96.7318 6.845281 39.50492 0 0 -1.381471 9.960044 11.66396 2.420673
-976.4056 79.68692 -213.2914 15.30448 2.816536 96.68891 3.754289 9.206286 -0.4894907 -0 28.88855 -0 -10.86171 -5.420269 -1.113263 1.61079 -8.530917 -2.124612 -0 28.38417 -0 11.9256 2.51394 11.02026 -1.154614 -3.041185 9.683004 0.9348027 13.63592 -5.88105 -2.043151 20.78852 5.194918 4.661468 -13.26136 0.9214885 3.402581 -28.54805 13.59962 82.81275 23.08052 -10.22824 -0 0 27.70359 -17.88468 8.520871 9.105583 3.212119 -25.62234 -9.336924 -96.7318 6.845281 39.50492 0 0 -1.381471 9.960044 11.66396 2.420673
